<svg width="20" height="17" viewBox="0 0 20 17" fill="none" xmlns="http://www.w3.org/2000/svg">
<path d="M18.82 0.00125071C18.5985 0.0103346 18.3828 0.0679619 18.1884 0.140745C17.9959 0.213041 16.8877 0.655097 15.2513 1.30901C13.6149 1.96292 11.4877 2.81444 9.37907 3.65882C5.16177 5.34756 1.01753 7.00916 1.01753 7.00916L1.04774 6.99837C1.04774 6.99837 0.797615 7.07651 0.544022 7.24165C0.417226 7.32422 0.280814 7.43082 0.169121 7.58623C0.0574286 7.74165 -0.0242261 7.9619 0.00654565 8.19486C0.11463 9.01312 1.02198 9.24522 1.02198 9.24522L1.02553 9.24688L5.07482 10.5422C5.17806 10.8641 6.30298 14.3733 6.55044 15.1164C6.6871 15.5273 6.81501 15.7643 6.94844 15.926C7.0152 16.0069 7.08517 16.0695 7.16254 16.1153C7.19328 16.1335 7.22561 16.1471 7.2576 16.1593H7.25937C7.2633 16.1609 7.267 16.1611 7.27092 16.1626L7.26026 16.1601C7.26769 16.1629 7.27503 16.1677 7.28247 16.1701C7.29691 16.1748 7.30575 16.1747 7.32423 16.1784C7.78797 16.3297 8.17175 16.0489 8.17175 16.0489L8.18774 16.0372L10.6752 13.8809L14.7121 16.8227L14.7627 16.8443C15.4693 17.1375 16.1083 16.9739 16.4622 16.7048C16.8161 16.4357 16.9553 16.0887 16.9553 16.0887L16.9704 16.0522L19.9367 1.60211C20.0126 1.27883 20.0234 0.999389 19.9518 0.746879C19.8802 0.494369 19.7063 0.274864 19.4881 0.153199C19.2698 0.0315348 19.0415 -0.00783318 18.82 0.00125071ZM18.844 0.865615C18.934 0.861721 19.0007 0.871334 19.0217 0.883052C19.0427 0.89477 19.0521 0.893228 19.0723 0.964423C19.0925 1.03562 19.1034 1.18558 19.0483 1.42027L19.0465 1.42525L16.0971 15.7915C16.0901 15.8059 16.0286 15.9388 15.8883 16.0455C15.7452 16.1544 15.5859 16.2394 15.1634 16.0738L10.749 12.8563L10.6246 12.7649L10.6219 12.7674L9.30178 11.8416L16.7207 3.68373C16.7777 3.6212 16.8142 3.54458 16.8256 3.46313C16.837 3.38168 16.8229 3.29889 16.785 3.22476C16.7471 3.15063 16.6871 3.08834 16.6122 3.04543C16.5372 3.00251 16.4506 2.98081 16.3627 2.98293C16.2769 2.98502 16.1934 3.00978 16.122 3.05434L5.38664 9.74341L1.33114 8.44562C1.33114 8.44562 0.928427 8.23617 0.909151 8.09024C0.908082 8.08215 0.903327 8.08947 0.924254 8.06035C0.94518 8.03123 0.997782 7.98207 1.06373 7.93912C1.19563 7.85323 1.34624 7.80129 1.34624 7.80129L1.36134 7.79631L1.37645 7.79049C1.37645 7.79049 5.52089 6.1288 9.73798 4.44015C11.8465 3.59582 13.9734 2.74492 15.6094 2.09117C17.2449 1.43759 18.4268 0.967149 18.5268 0.92955C18.6408 0.886911 18.754 0.869509 18.844 0.865615ZM13.9241 5.44567L8.2979 11.6324L8.29524 11.6349C8.28645 11.6448 8.27815 11.655 8.27036 11.6656C8.26144 11.6771 8.25313 11.689 8.24549 11.7013C8.21388 11.7514 8.19362 11.8071 8.18596 11.8649C8.18596 11.866 8.18596 11.8671 8.18596 11.8682L7.45304 14.9487C7.44086 14.9154 7.43233 14.9032 7.41928 14.864V14.8632C7.18649 14.1641 6.12515 10.8546 5.97831 10.3969L13.9241 5.44567ZM8.9331 12.6462L9.94409 13.3553L8.4587 14.6423L8.9331 12.6462Z" fill="white"/>
</svg>
