<svg width="26" height="33" viewBox="0 0 26 33" fill="none" xmlns="http://www.w3.org/2000/svg">
<path d="M12.2485 24.9064L12.3351 24.9564L21.2058 9.59186L21.1192 9.54186C21.2058 9.59186 21.2058 9.59181 21.2059 9.59173L21.206 9.59151L21.2064 9.59079L21.2079 9.58825L21.2131 9.57884C21.2177 9.57066 21.2242 9.5587 21.2325 9.54314C21.2492 9.51203 21.2728 9.46648 21.3013 9.40792C21.3582 9.29082 21.4347 9.12149 21.5137 8.91119C21.6716 8.49105 21.8403 7.90497 21.8815 7.24387C21.9227 6.58235 21.8363 5.84355 21.4816 5.12141C21.1266 4.39856 20.5058 3.69888 19.4888 3.11169C18.4717 2.5245 17.5554 2.33676 16.7519 2.3907C15.9492 2.4446 15.2662 2.7392 14.7139 3.10565C14.1619 3.47188 13.7387 3.91101 13.4538 4.25778C13.3112 4.43135 13.2028 4.58228 13.1299 4.69015C13.0934 4.7441 13.0657 4.78733 13.0471 4.81727C13.0378 4.83225 13.0307 4.84391 13.0259 4.85194L13.0204 4.86122L13.0189 4.86374L13.0185 4.86446L13.0184 4.86468C13.0183 4.86475 13.0183 4.86481 13.1049 4.91481L13.0183 4.86481L4.14757 20.2294L4.23417 20.2794C4.14757 20.2294 4.14753 20.2294 4.14749 20.2295L4.14733 20.2298L4.14679 20.2307L4.14481 20.2342L4.13742 20.2473C4.13101 20.2588 4.12169 20.2757 4.10982 20.2977C4.08608 20.3418 4.05215 20.4065 4.01092 20.4897C3.92847 20.656 3.81677 20.8965 3.69906 21.1943C3.46385 21.7893 3.2037 22.6155 3.10638 23.5373C3.00905 24.4591 3.07422 25.4803 3.49365 26.4615C3.91368 27.4442 4.68611 28.38 5.99152 29.1337C7.29693 29.8874 8.49356 30.0884 9.55459 29.9608C10.6141 29.8334 11.531 29.3793 12.2807 28.8341C13.0303 28.2889 13.6158 27.6505 14.0135 27.1493C14.2125 26.8985 14.3649 26.6815 14.4677 26.5269C14.5192 26.4496 14.5582 26.3879 14.5845 26.3453C14.5977 26.324 14.6076 26.3075 14.6144 26.2962L14.6221 26.2832L14.6241 26.2798L14.6246 26.2788L14.6248 26.2786C14.6248 26.2785 14.6249 26.2784 14.5383 26.2284L14.6249 26.2784L23.4956 10.9139C23.6038 10.7265 23.5997 10.5334 23.5261 10.3661C23.454 10.2022 23.3168 10.0655 23.1592 9.9745C23.0016 9.88352 22.8146 9.83303 22.6366 9.85255C22.4549 9.87245 22.2857 9.9655 22.1775 10.1529L13.3068 25.5174L13.3064 25.5172L13.3027 25.5253L13.3026 25.5253L13.3026 25.5254L13.3024 25.5259L13.3013 25.5282L13.2967 25.5379C13.2954 25.5405 13.294 25.5435 13.2923 25.5469C13.2884 25.5548 13.2835 25.5648 13.2775 25.5768C13.2603 25.611 13.2343 25.6612 13.1996 25.7244C13.1302 25.8508 13.026 26.0292 12.8871 26.2356C12.6089 26.6487 12.1938 27.1715 11.6441 27.6148C11.0948 28.0577 10.4138 28.4192 9.6025 28.5156C8.79222 28.6119 7.84253 28.4449 6.75252 27.8156C5.76879 27.2476 5.20078 26.5399 4.89775 25.8005C4.59405 25.0594 4.55376 24.2795 4.63744 23.5653C4.72111 22.8511 4.92831 22.2067 5.11519 21.74C5.20853 21.5069 5.29656 21.3188 5.36109 21.1892C5.39335 21.1244 5.41972 21.0743 5.43791 21.0406C5.44701 21.0238 5.45406 21.011 5.45878 21.0026L5.46408 20.9931L5.46535 20.9909L5.46563 20.9904L5.46568 20.9903L14.3364 5.62587L14.3364 5.62585L14.3364 5.62582L14.3365 5.62563L14.3372 5.62441L14.3404 5.61897L14.3541 5.59665C14.3664 5.57692 14.385 5.54779 14.4098 5.51107C14.4595 5.4376 14.5339 5.33389 14.6321 5.21429C14.8288 4.97472 15.1193 4.67338 15.4958 4.42309C15.8719 4.17302 16.332 3.97506 16.8696 3.9384C17.4063 3.9018 18.0275 4.0255 18.7278 4.42979C19.428 4.83409 19.8458 5.31021 20.0824 5.79335C20.3195 6.27721 20.3781 6.77463 20.3496 7.22541C20.3211 7.67661 20.2054 8.07889 20.0962 8.36903C20.0418 8.51387 19.9892 8.63016 19.9504 8.7099C19.931 8.74976 19.915 8.78044 19.9041 8.80094L19.8916 8.82392L19.8885 8.82944L19.8878 8.83067L19.8877 8.83086L19.8877 8.83089L19.8877 8.83091L11.017 24.1953L11.017 24.1954L11.017 24.1954L11.0166 24.1961L11.0147 24.1993L11.0064 24.2128C10.9989 24.2249 10.9876 24.2428 10.9724 24.2655C10.9419 24.311 10.8964 24.3754 10.8365 24.45C10.7164 24.5996 10.5405 24.7879 10.3156 24.9465C10.0909 25.1049 9.81999 25.2318 9.50866 25.2634C9.19859 25.2949 8.84105 25.2326 8.44007 25.0011C7.64498 24.542 7.47581 23.8763 7.50296 23.3182C7.51664 23.037 7.58059 22.7835 7.64157 22.5997C7.67199 22.508 7.70148 22.4342 7.72321 22.3837C7.73407 22.3585 7.74297 22.3391 7.74905 22.3262L7.75594 22.3119L7.75697 22.3098L16.1899 7.70347C16.2981 7.5161 16.294 7.32296 16.2205 7.15571C16.1483 6.99176 16.0111 6.85507 15.8535 6.76409C15.696 6.67311 15.509 6.62262 15.3309 6.64213C15.1493 6.66204 14.98 6.75509 14.8718 6.94246L6.43894 21.5486L6.43454 21.5554C6.43058 21.5614 6.42489 21.5703 6.41769 21.5818C6.40329 21.6048 6.38284 21.6384 6.35809 21.6816C6.3086 21.768 6.24181 21.8929 6.17173 22.0483C6.03179 22.3586 5.87751 22.7932 5.82327 23.2873C5.76896 23.782 5.81477 24.3384 6.07764 24.8882C6.34075 25.4385 6.8177 25.9745 7.61298 26.4336C8.33356 26.8497 8.99305 26.9684 9.57759 26.9071C10.1608 26.846 10.6621 26.6066 11.0693 26.3178C11.4764 26.0292 11.7922 25.6894 12.0059 25.4226C12.1129 25.289 12.1948 25.1732 12.25 25.0905C12.2777 25.0492 12.2987 25.016 12.3129 24.9931L12.3292 24.9664L12.3334 24.9593L12.3346 24.9573L12.3349 24.9567L12.335 24.9565C12.335 24.9565 12.3351 24.9564 12.2485 24.9064Z" fill="#5C5C5C" stroke="#5C5C5C" stroke-width="0.2"/>
</svg>
